<?xml version="1.0" encoding="UTF-8" standalone="no"?>
<svg
   xmlns:dc="http://purl.org/dc/elements/1.1/"
   xmlns:cc="http://creativecommons.org/ns#"
   xmlns:rdf="http://www.w3.org/1999/02/22-rdf-syntax-ns#"
   xmlns:svg="http://www.w3.org/2000/svg"
   xmlns="http://www.w3.org/2000/svg"
   id="svg921"
   version="1.1"
   viewBox="0 0 6.3499999 4.7625001"
   height="18"
   width="24">
  <defs
     id="defs915" />
  <metadata
     id="metadata918">
    <rdf:RDF>
      <cc:Work
         rdf:about="">
        <dc:format>image/svg+xml</dc:format>
        <dc:type
           rdf:resource="http://purl.org/dc/dcmitype/StillImage" />
        <dc:title></dc:title>
      </cc:Work>
    </rdf:RDF>
  </metadata>
  <g
     transform="translate(-287.86667,-45.910416)"
     id="layer1">
    <g
       id="g900"
       transform="matrix(0.26458333,0,0,0.26458333,287.86667,45.14644)">
      <path
         d="m 24,19.88747 v 1 h -4 v -1 h 0.835 c 0.258,0 0.405,-0.178001 0.321,-0.422001 L 20.683,18.09447 h -2.231 l -0.575,-1.59 h 2.295 l -1.362,-4.077 -1.154,3.451 -0.879,-2.498 0.921,-2.493 h 2.222 l 3.033,8.516 c 0.111,0.315 0.244,0.484 0.578,0.484 z m -6,-1 h 1 v 2 h -7 v -2 h 0.532 c 0.459,0 0.782,-0.453 0.633,-0.887001 L 12.349,15.88747 H 6.117 L 5.302,18.000469 C 5.153,18.43447 5.476,18.88747 5.935,18.88747 H 7 v 2 H 0 v -2 h 0.43 c 0.593,0 1.123,-0.375 1.32,-0.935 L 7.257,2.8874695 h 3.952 L 16.716,17.95247 c 0.197,0.56 0.69,0.935 1.284,0.935 z m -10.886,-6 h 4.238 L 9.093,6.6884695 Z"
         id="path10" />
      <g
         id="g871"
         transform="translate(59.505629,-7.1122265)">
        <path
           id="path852"
           d="m -43.068483,12.923612 h 5.847831"
           style="fill:none;stroke:#000000;stroke-width:1px;stroke-linecap:butt;stroke-linejoin:miter;stroke-opacity:1" />
        <path
           id="path852-6"
           d="M -40.144567,15.847527 V 9.999696"
           style="fill:none;stroke:#000000;stroke-width:1px;stroke-linecap:butt;stroke-linejoin:miter;stroke-opacity:1" />
      </g>
    </g>
  </g>
</svg>
