<?xml version="1.0" encoding="UTF-8" standalone="no"?>
<svg
   xmlns:dc="http://purl.org/dc/elements/1.1/"
   xmlns:cc="http://creativecommons.org/ns#"
   xmlns:rdf="http://www.w3.org/1999/02/22-rdf-syntax-ns#"
   xmlns:svg="http://www.w3.org/2000/svg"
   xmlns="http://www.w3.org/2000/svg"
   id="svg953"
   version="1.1"
   viewBox="0 0 6.3499999 4.7625001"
   height="18"
   width="24">
  <defs
     id="defs947" />
  <metadata
     id="metadata950">
    <rdf:RDF>
      <cc:Work
         rdf:about="">
        <dc:format>image/svg+xml</dc:format>
        <dc:type
           rdf:resource="http://purl.org/dc/dcmitype/StillImage" />
        <dc:title></dc:title>
      </cc:Work>
    </rdf:RDF>
  </metadata>
  <g
     transform="translate(-225.12262,-435.98185)"
     id="layer1">
    <path
       style="stroke-width:0.26458332"
       id="path10-3"
       d="m 231.47262,440.47976 v 0.26459 h -1.05833 v -0.26459 h 0.22092 c 0.0683,0 0.10716,-0.0471 0.0849,-0.11165 l -0.12514,-0.36275 h -0.59029 l -0.15213,-0.42068 h 0.60721 l -0.36036,-1.07871 -0.30533,0.91308 -0.23257,-0.66093 0.24368,-0.65961 h 0.58791 l 0.80248,2.25319 c 0.0294,0.0833 0.0646,0.12806 0.15293,0.12806 z m -1.5875,-0.26458 h 0.26458 v 0.52917 h -1.85208 v -0.52917 h 0.14076 c 0.12144,0 0.2069,-0.11986 0.16748,-0.23469 l -0.2159,-0.55906 h -1.64888 l -0.21564,0.55906 c -0.0394,0.11483 0.046,0.23469 0.16748,0.23469 h 0.28178 v 0.52917 h -1.85208 v -0.52917 h 0.11377 c 0.1569,0 0.29713,-0.0992 0.34925,-0.24739 l 1.45706,-3.98594 h 1.04563 l 1.45706,3.98594 c 0.0521,0.14817 0.18257,0.24739 0.33973,0.24739 z m -2.88026,-1.5875 h 1.12131 l -0.59769,-1.64015 z" />
    <path
       id="path852-0"
       d="m 229.48941,436.75546 h 1.54724"
       style="fill:none;stroke:#000000;stroke-width:0.26458332px;stroke-linecap:butt;stroke-linejoin:miter;stroke-opacity:1" />
  </g>
</svg>
